<?xml version="1.0" encoding="UTF-8"?>
<svg xmlns="http://www.w3.org/2000/svg" xmlns:xlink="http://www.w3.org/1999/xlink" width="288" height="288" viewBox="0 0 288 288">
<defs>
<g>
<g id="glyph-0-0">
<path d="M 0.367188 -3.105469 C 0.367188 -3.851562 0.441406 -4.449219 0.59375 -4.90625 C 0.75 -5.359375 0.976562 -5.710938 1.277344 -5.957031 C 1.582031 -6.203125 1.960938 -6.324219 2.417969 -6.324219 C 2.757812 -6.324219 3.054688 -6.257812 3.308594 -6.121094 C 3.5625 -5.984375 3.773438 -5.789062 3.941406 -5.53125 C 4.105469 -5.277344 4.238281 -4.964844 4.332031 -4.59375 C 4.425781 -4.226562 4.472656 -3.730469 4.472656 -3.105469 C 4.472656 -2.367188 4.398438 -1.769531 4.246094 -1.316406 C 4.09375 -0.863281 3.867188 -0.511719 3.5625 -0.265625 C 3.261719 -0.015625 2.878906 0.109375 2.417969 0.109375 C 1.8125 0.109375 1.335938 -0.109375 0.988281 -0.546875 C 0.574219 -1.070312 0.367188 -1.921875 0.367188 -3.105469 M 1.160156 -3.105469 C 1.160156 -2.074219 1.28125 -1.382812 1.523438 -1.042969 C 1.765625 -0.699219 2.0625 -0.527344 2.417969 -0.527344 C 2.773438 -0.527344 3.074219 -0.699219 3.316406 -1.042969 C 3.558594 -1.386719 3.679688 -2.074219 3.679688 -3.105469 C 3.679688 -4.144531 3.558594 -4.832031 3.316406 -5.171875 C 3.074219 -5.515625 2.773438 -5.683594 2.410156 -5.683594 C 2.054688 -5.683594 1.773438 -5.535156 1.558594 -5.234375 C 1.292969 -4.851562 1.160156 -4.140625 1.160156 -3.105469 Z M 1.160156 -3.105469 "/>
</g>
<g id="glyph-0-1">
<path d="M 0.800781 0 L 0.800781 -0.882812 L 1.679688 -0.882812 L 1.679688 0 Z M 0.800781 0 "/>
</g>
<g id="glyph-0-2">
<path d="M 0.367188 -1.648438 L 1.175781 -1.71875 C 1.238281 -1.324219 1.378906 -1.027344 1.597656 -0.828125 C 1.816406 -0.628906 2.078125 -0.527344 2.390625 -0.527344 C 2.761719 -0.527344 3.078125 -0.667969 3.335938 -0.949219 C 3.59375 -1.230469 3.722656 -1.601562 3.722656 -2.066406 C 3.722656 -2.507812 3.597656 -2.855469 3.347656 -3.109375 C 3.101562 -3.367188 2.777344 -3.492188 2.375 -3.492188 C 2.125 -3.492188 1.902344 -3.4375 1.703125 -3.324219 C 1.5 -3.210938 1.34375 -3.0625 1.230469 -2.882812 L 0.503906 -2.976562 L 1.113281 -6.214844 L 4.246094 -6.214844 L 4.246094 -5.472656 L 1.730469 -5.472656 L 1.390625 -3.78125 C 1.769531 -4.042969 2.167969 -4.175781 2.582031 -4.175781 C 3.132812 -4.175781 3.597656 -3.984375 3.976562 -3.605469 C 4.351562 -3.222656 4.542969 -2.734375 4.542969 -2.136719 C 4.542969 -1.566406 4.375 -1.074219 4.042969 -0.65625 C 3.640625 -0.148438 3.089844 0.109375 2.390625 0.109375 C 1.816406 0.109375 1.347656 -0.0546875 0.984375 -0.375 C 0.625 -0.695312 0.417969 -1.121094 0.367188 -1.648438 Z M 0.367188 -1.648438 "/>
</g>
<g id="glyph-0-3">
<path d="M 3.277344 0 L 2.503906 0 L 2.503906 -4.929688 C 2.320312 -4.75 2.074219 -4.574219 1.773438 -4.394531 C 1.46875 -4.21875 1.199219 -4.085938 0.957031 -3.996094 L 0.957031 -4.742188 C 1.390625 -4.945312 1.769531 -5.195312 2.09375 -5.484375 C 2.417969 -5.773438 2.644531 -6.054688 2.78125 -6.324219 L 3.277344 -6.324219 Z M 3.277344 0 "/>
</g>
<g id="glyph-0-4">
<path d="M 4.429688 -0.742188 L 4.429688 0 L 0.265625 0 C 0.261719 -0.1875 0.289062 -0.367188 0.355469 -0.539062 C 0.460938 -0.820312 0.632812 -1.101562 0.867188 -1.375 C 1.097656 -1.648438 1.4375 -1.96875 1.878906 -2.328125 C 2.5625 -2.890625 3.023438 -3.335938 3.265625 -3.664062 C 3.507812 -3.992188 3.625 -4.300781 3.625 -4.59375 C 3.625 -4.898438 3.515625 -5.160156 3.296875 -5.367188 C 3.078125 -5.578125 2.792969 -5.683594 2.441406 -5.683594 C 2.066406 -5.683594 1.769531 -5.574219 1.546875 -5.351562 C 1.324219 -5.125 1.210938 -4.816406 1.207031 -4.421875 L 0.414062 -4.503906 C 0.46875 -5.097656 0.671875 -5.546875 1.027344 -5.859375 C 1.382812 -6.167969 1.859375 -6.324219 2.457031 -6.324219 C 3.0625 -6.324219 3.539062 -6.15625 3.894531 -5.824219 C 4.246094 -5.488281 4.421875 -5.070312 4.421875 -4.578125 C 4.421875 -4.324219 4.371094 -4.078125 4.265625 -3.832031 C 4.164062 -3.589844 3.992188 -3.332031 3.753906 -3.0625 C 3.515625 -2.792969 3.117188 -2.425781 2.5625 -1.957031 C 2.097656 -1.566406 1.800781 -1.300781 1.667969 -1.164062 C 1.535156 -1.023438 1.425781 -0.882812 1.339844 -0.742188 Z M 4.429688 -0.742188 "/>
</g>
<g id="glyph-1-0">
<path d="M 0.835938 0 L 0.835938 -7.875 L 1.90625 -7.875 L 6.042969 -1.691406 L 6.042969 -7.875 L 7.042969 -7.875 L 7.042969 0 L 5.972656 0 L 1.835938 -6.1875 L 1.835938 0 Z M 0.835938 0 "/>
</g>
<g id="glyph-1-1">
<path d="M 4.464844 0 L 4.464844 -0.835938 C 4.019531 -0.195312 3.414062 0.128906 2.652344 0.128906 C 2.316406 0.128906 2.003906 0.0625 1.710938 -0.0625 C 1.417969 -0.195312 1.203125 -0.355469 1.0625 -0.550781 C 0.917969 -0.746094 0.820312 -0.984375 0.761719 -1.265625 C 0.722656 -1.457031 0.703125 -1.757812 0.703125 -2.171875 L 0.703125 -5.703125 L 1.671875 -5.703125 L 1.671875 -2.539062 C 1.671875 -2.035156 1.691406 -1.695312 1.730469 -1.519531 C 1.789062 -1.265625 1.917969 -1.066406 2.117188 -0.921875 C 2.3125 -0.777344 2.554688 -0.703125 2.847656 -0.703125 C 3.136719 -0.703125 3.410156 -0.777344 3.664062 -0.925781 C 3.917969 -1.074219 4.097656 -1.277344 4.203125 -1.535156 C 4.308594 -1.789062 4.359375 -2.160156 4.359375 -2.648438 L 4.359375 -5.703125 L 5.328125 -5.703125 L 5.328125 0 Z M 4.464844 0 "/>
</g>
<g id="glyph-1-2">
<path d="M 0.726562 0 L 0.726562 -5.703125 L 1.589844 -5.703125 L 1.589844 -4.902344 C 1.769531 -5.183594 2.007812 -5.40625 2.304688 -5.578125 C 2.601562 -5.746094 2.941406 -5.832031 3.320312 -5.832031 C 3.742188 -5.832031 4.089844 -5.746094 4.359375 -5.570312 C 4.628906 -5.394531 4.820312 -5.148438 4.929688 -4.835938 C 5.382812 -5.5 5.96875 -5.832031 6.691406 -5.832031 C 7.257812 -5.832031 7.691406 -5.675781 7.996094 -5.363281 C 8.300781 -5.050781 8.453125 -4.566406 8.453125 -3.914062 L 8.453125 0 L 7.492188 0 L 7.492188 -3.59375 C 7.492188 -3.980469 7.460938 -4.257812 7.398438 -4.429688 C 7.335938 -4.597656 7.222656 -4.734375 7.058594 -4.839844 C 6.894531 -4.941406 6.699219 -4.996094 6.476562 -4.996094 C 6.078125 -4.996094 5.742188 -4.863281 5.476562 -4.59375 C 5.214844 -4.328125 5.082031 -3.902344 5.082031 -3.3125 L 5.082031 0 L 4.113281 0 L 4.113281 -3.707031 C 4.113281 -4.136719 4.035156 -4.457031 3.878906 -4.671875 C 3.71875 -4.886719 3.460938 -4.996094 3.105469 -4.996094 C 2.832031 -4.996094 2.582031 -4.921875 2.351562 -4.78125 C 2.117188 -4.636719 1.953125 -4.425781 1.847656 -4.152344 C 1.742188 -3.875 1.691406 -3.480469 1.691406 -2.960938 L 1.691406 0 Z M 0.726562 0 "/>
</g>
<g id="glyph-1-3">
<path d="M 1.617188 0 L 0.71875 0 L 0.71875 -7.875 L 1.6875 -7.875 L 1.6875 -5.066406 C 2.09375 -5.578125 2.617188 -5.832031 3.25 -5.832031 C 3.601562 -5.832031 3.933594 -5.761719 4.246094 -5.621094 C 4.558594 -5.480469 4.816406 -5.28125 5.019531 -5.023438 C 5.222656 -4.769531 5.378906 -4.460938 5.496094 -4.097656 C 5.609375 -3.738281 5.667969 -3.351562 5.667969 -2.9375 C 5.667969 -1.960938 5.425781 -1.203125 4.941406 -0.671875 C 4.457031 -0.136719 3.878906 0.128906 3.203125 0.128906 C 2.527344 0.128906 2 -0.152344 1.617188 -0.714844 L 1.617188 0 M 1.605469 -2.894531 C 1.605469 -2.210938 1.699219 -1.71875 1.886719 -1.414062 C 2.191406 -0.914062 2.601562 -0.664062 3.121094 -0.664062 C 3.542969 -0.664062 3.910156 -0.847656 4.214844 -1.214844 C 4.523438 -1.582031 4.679688 -2.128906 4.679688 -2.859375 C 4.679688 -3.601562 4.53125 -4.152344 4.234375 -4.507812 C 3.941406 -4.859375 3.582031 -5.039062 3.164062 -5.039062 C 2.742188 -5.039062 2.375 -4.855469 2.066406 -4.488281 C 1.761719 -4.121094 1.605469 -3.589844 1.605469 -2.894531 Z M 1.605469 -2.894531 "/>
</g>
<g id="glyph-1-4">
<path d="M 4.628906 -1.835938 L 5.628906 -1.714844 C 5.472656 -1.128906 5.179688 -0.675781 4.753906 -0.355469 C 4.328125 -0.03125 3.78125 0.128906 3.121094 0.128906 C 2.285156 0.128906 1.625 -0.128906 1.136719 -0.640625 C 0.648438 -1.15625 0.402344 -1.875 0.402344 -2.804688 C 0.402344 -3.761719 0.648438 -4.507812 1.144531 -5.039062 C 1.636719 -5.566406 2.277344 -5.832031 3.066406 -5.832031 C 3.828125 -5.832031 4.453125 -5.574219 4.9375 -5.054688 C 5.417969 -4.535156 5.660156 -3.804688 5.660156 -2.863281 C 5.660156 -2.804688 5.660156 -2.71875 5.65625 -2.605469 L 1.402344 -2.605469 C 1.4375 -1.976562 1.613281 -1.5 1.933594 -1.164062 C 2.253906 -0.832031 2.648438 -0.664062 3.125 -0.664062 C 3.480469 -0.664062 3.78125 -0.757812 4.035156 -0.945312 C 4.285156 -1.132812 4.484375 -1.429688 4.628906 -1.835938 M 1.457031 -3.398438 L 4.640625 -3.398438 C 4.597656 -3.878906 4.476562 -4.238281 4.273438 -4.480469 C 3.96875 -4.851562 3.566406 -5.039062 3.078125 -5.039062 C 2.632812 -5.039062 2.261719 -4.890625 1.957031 -4.59375 C 1.65625 -4.296875 1.488281 -3.898438 1.457031 -3.398438 Z M 1.457031 -3.398438 "/>
</g>
<g id="glyph-1-5">
<path d="M 0.714844 0 L 0.714844 -5.703125 L 1.585938 -5.703125 L 1.585938 -4.839844 C 1.804688 -5.242188 2.011719 -5.511719 2.199219 -5.640625 C 2.386719 -5.769531 2.59375 -5.832031 2.820312 -5.832031 C 3.144531 -5.832031 3.476562 -5.730469 3.8125 -5.523438 L 3.480469 -4.625 C 3.242188 -4.765625 3.007812 -4.832031 2.773438 -4.835938 C 2.558594 -4.832031 2.371094 -4.769531 2.203125 -4.644531 C 2.035156 -4.515625 1.914062 -4.339844 1.84375 -4.113281 C 1.734375 -3.769531 1.679688 -3.394531 1.679688 -2.984375 L 1.679688 0 Z M 0.714844 0 "/>
</g>
<g id="glyph-1-6">
</g>
<g id="glyph-1-7">
<path d="M 0.367188 -2.851562 C 0.367188 -3.910156 0.660156 -4.691406 1.246094 -5.199219 C 1.738281 -5.621094 2.335938 -5.832031 3.039062 -5.832031 C 3.824219 -5.832031 4.464844 -5.574219 4.960938 -5.0625 C 5.460938 -4.546875 5.710938 -3.839844 5.710938 -2.933594 C 5.710938 -2.199219 5.597656 -1.621094 5.378906 -1.199219 C 5.160156 -0.78125 4.839844 -0.453125 4.417969 -0.21875 C 3.996094 0.0117188 3.539062 0.128906 3.039062 0.128906 C 2.242188 0.128906 1.597656 -0.128906 1.105469 -0.640625 C 0.613281 -1.152344 0.367188 -1.890625 0.367188 -2.851562 M 1.359375 -2.851562 C 1.359375 -2.121094 1.519531 -1.574219 1.835938 -1.210938 C 2.15625 -0.847656 2.554688 -0.664062 3.039062 -0.664062 C 3.519531 -0.664062 3.917969 -0.847656 4.238281 -1.214844 C 4.554688 -1.578125 4.714844 -2.136719 4.714844 -2.882812 C 4.714844 -3.589844 4.554688 -4.125 4.234375 -4.488281 C 3.914062 -4.851562 3.515625 -5.03125 3.039062 -5.03125 C 2.554688 -5.03125 2.15625 -4.851562 1.835938 -4.492188 C 1.519531 -4.128906 1.359375 -3.582031 1.359375 -2.851562 Z M 1.359375 -2.851562 "/>
</g>
<g id="glyph-1-8">
<path d="M 0.957031 0 L 0.957031 -4.953125 L 0.101562 -4.953125 L 0.101562 -5.703125 L 0.957031 -5.703125 L 0.957031 -6.3125 C 0.957031 -6.695312 0.988281 -6.980469 1.058594 -7.164062 C 1.152344 -7.414062 1.316406 -7.617188 1.550781 -7.773438 C 1.785156 -7.929688 2.113281 -8.007812 2.535156 -8.007812 C 2.808594 -8.007812 3.109375 -7.976562 3.4375 -7.910156 L 3.292969 -7.070312 C 3.09375 -7.105469 2.902344 -7.121094 2.722656 -7.121094 C 2.429688 -7.121094 2.222656 -7.058594 2.101562 -6.933594 C 1.976562 -6.808594 1.917969 -6.574219 1.917969 -6.230469 L 1.917969 -5.703125 L 3.03125 -5.703125 L 3.03125 -4.953125 L 1.917969 -4.953125 L 1.917969 0 Z M 0.957031 0 "/>
</g>
<g id="glyph-1-9">
<path d="M 4.445312 -0.703125 C 4.089844 -0.398438 3.746094 -0.183594 3.414062 -0.0585938 C 3.082031 0.0664062 2.726562 0.128906 2.347656 0.128906 C 1.71875 0.128906 1.238281 -0.0234375 0.902344 -0.332031 C 0.566406 -0.636719 0.398438 -1.027344 0.398438 -1.503906 C 0.398438 -1.78125 0.460938 -2.039062 0.589844 -2.269531 C 0.714844 -2.5 0.882812 -2.6875 1.085938 -2.824219 C 1.292969 -2.964844 1.523438 -3.070312 1.78125 -3.140625 C 1.972656 -3.191406 2.257812 -3.242188 2.640625 -3.289062 C 3.421875 -3.378906 3.996094 -3.492188 4.367188 -3.621094 C 4.371094 -3.753906 4.371094 -3.835938 4.371094 -3.871094 C 4.371094 -4.265625 4.28125 -4.542969 4.097656 -4.703125 C 3.851562 -4.921875 3.484375 -5.03125 2.996094 -5.03125 C 2.542969 -5.03125 2.207031 -4.953125 1.988281 -4.792969 C 1.773438 -4.632812 1.613281 -4.351562 1.507812 -3.949219 L 0.5625 -4.078125 C 0.648438 -4.480469 0.792969 -4.808594 0.988281 -5.058594 C 1.183594 -5.304688 1.46875 -5.496094 1.84375 -5.632812 C 2.214844 -5.765625 2.644531 -5.832031 3.136719 -5.832031 C 3.625 -5.832031 4.019531 -5.777344 4.324219 -5.660156 C 4.628906 -5.546875 4.851562 -5.402344 4.996094 -5.230469 C 5.136719 -5.054688 5.238281 -4.835938 5.296875 -4.570312 C 5.328125 -4.40625 5.34375 -4.109375 5.34375 -3.679688 L 5.34375 -2.390625 C 5.34375 -1.492188 5.363281 -0.921875 5.40625 -0.683594 C 5.445312 -0.445312 5.527344 -0.21875 5.648438 0 L 4.640625 0 C 4.539062 -0.199219 4.476562 -0.433594 4.445312 -0.703125 M 4.367188 -2.863281 C 4.015625 -2.71875 3.488281 -2.597656 2.789062 -2.496094 C 2.390625 -2.441406 2.109375 -2.375 1.945312 -2.304688 C 1.78125 -2.234375 1.652344 -2.128906 1.5625 -1.988281 C 1.472656 -1.851562 1.429688 -1.699219 1.429688 -1.53125 C 1.429688 -1.273438 1.527344 -1.058594 1.722656 -0.886719 C 1.917969 -0.714844 2.203125 -0.628906 2.578125 -0.628906 C 2.949219 -0.628906 3.28125 -0.710938 3.570312 -0.871094 C 3.863281 -1.035156 4.074219 -1.257812 4.210938 -1.542969 C 4.316406 -1.761719 4.367188 -2.082031 4.367188 -2.507812 Z M 4.367188 -2.863281 "/>
</g>
<g id="glyph-1-10">
<path d="M 0.546875 0.472656 L 1.488281 0.613281 C 1.527344 0.902344 1.636719 1.113281 1.816406 1.246094 C 2.054688 1.425781 2.382812 1.515625 2.796875 1.515625 C 3.246094 1.515625 3.589844 1.425781 3.835938 1.246094 C 4.078125 1.066406 4.242188 0.816406 4.328125 0.492188 C 4.378906 0.296875 4.402344 -0.117188 4.398438 -0.746094 C 3.976562 -0.25 3.449219 0 2.820312 0 C 2.035156 0 1.429688 -0.28125 1 -0.847656 C 0.570312 -1.414062 0.355469 -2.09375 0.355469 -2.882812 C 0.355469 -3.429688 0.453125 -3.929688 0.648438 -4.390625 C 0.847656 -4.851562 1.132812 -5.207031 1.507812 -5.457031 C 1.878906 -5.707031 2.320312 -5.832031 2.824219 -5.832031 C 3.5 -5.832031 4.054688 -5.5625 4.492188 -5.015625 L 4.492188 -5.703125 L 5.382812 -5.703125 L 5.382812 -0.773438 C 5.382812 0.113281 5.292969 0.742188 5.109375 1.113281 C 4.929688 1.484375 4.644531 1.777344 4.25 1.992188 C 3.859375 2.207031 3.375 2.316406 2.804688 2.316406 C 2.125 2.316406 1.574219 2.160156 1.15625 1.855469 C 0.734375 1.550781 0.535156 1.089844 0.546875 0.472656 M 1.347656 -2.953125 C 1.347656 -2.207031 1.496094 -1.660156 1.792969 -1.316406 C 2.089844 -0.972656 2.464844 -0.800781 2.910156 -0.800781 C 3.355469 -0.800781 3.726562 -0.972656 4.027344 -1.3125 C 4.328125 -1.65625 4.480469 -2.191406 4.480469 -2.921875 C 4.480469 -3.621094 4.324219 -4.148438 4.015625 -4.5 C 3.707031 -4.855469 3.332031 -5.03125 2.894531 -5.03125 C 2.464844 -5.03125 2.101562 -4.859375 1.800781 -4.507812 C 1.5 -4.160156 1.347656 -3.640625 1.347656 -2.953125 Z M 1.347656 -2.953125 "/>
</g>
<g id="glyph-1-11">
<path d="M 4.445312 -2.089844 L 5.398438 -1.964844 C 5.292969 -1.3125 5.027344 -0.796875 4.601562 -0.425781 C 4.171875 -0.0546875 3.648438 0.128906 3.023438 0.128906 C 2.242188 0.128906 1.617188 -0.125 1.140625 -0.636719 C 0.667969 -1.148438 0.429688 -1.878906 0.429688 -2.832031 C 0.429688 -3.445312 0.53125 -3.984375 0.734375 -4.445312 C 0.941406 -4.910156 1.25 -5.253906 1.667969 -5.488281 C 2.085938 -5.71875 2.539062 -5.832031 3.03125 -5.832031 C 3.648438 -5.832031 4.15625 -5.675781 4.550781 -5.363281 C 4.941406 -5.050781 5.195312 -4.605469 5.304688 -4.027344 L 4.367188 -3.882812 C 4.277344 -4.265625 4.117188 -4.554688 3.890625 -4.75 C 3.664062 -4.941406 3.390625 -5.039062 3.066406 -5.039062 C 2.578125 -5.039062 2.183594 -4.863281 1.878906 -4.515625 C 1.574219 -4.164062 1.421875 -3.613281 1.421875 -2.859375 C 1.421875 -2.089844 1.570312 -1.535156 1.863281 -1.1875 C 2.15625 -0.839844 2.539062 -0.664062 3.011719 -0.664062 C 3.394531 -0.664062 3.710938 -0.78125 3.964844 -1.015625 C 4.21875 -1.246094 4.378906 -1.605469 4.445312 -2.089844 Z M 4.445312 -2.089844 "/>
</g>
<g id="glyph-1-12">
<path d="M 0.703125 0 L 0.703125 -7.875 L 1.671875 -7.875 L 1.671875 0 Z M 0.703125 0 "/>
</g>
<g id="glyph-1-13">
<path d="M 0.730469 -6.761719 L 0.730469 -7.875 L 1.695312 -7.875 L 1.695312 -6.761719 L 0.730469 -6.761719 M 0.730469 0 L 0.730469 -5.703125 L 1.695312 -5.703125 L 1.695312 0 Z M 0.730469 0 "/>
</g>
<g id="glyph-1-14">
<path d="M 0.726562 2.1875 L 0.726562 -5.703125 L 1.605469 -5.703125 L 1.605469 -4.960938 C 1.8125 -5.253906 2.046875 -5.46875 2.308594 -5.617188 C 2.570312 -5.761719 2.886719 -5.832031 3.261719 -5.832031 C 3.746094 -5.832031 4.175781 -5.707031 4.550781 -5.457031 C 4.921875 -5.207031 5.203125 -4.851562 5.390625 -4.394531 C 5.582031 -3.941406 5.675781 -3.4375 5.675781 -2.894531 C 5.675781 -2.3125 5.574219 -1.785156 5.363281 -1.320312 C 5.152344 -0.851562 4.847656 -0.492188 4.449219 -0.246094 C 4.050781 0.00390625 3.632812 0.128906 3.191406 0.128906 C 2.867188 0.128906 2.578125 0.0625 2.324219 -0.0742188 C 2.066406 -0.210938 1.855469 -0.382812 1.691406 -0.589844 L 1.691406 2.1875 L 0.726562 2.1875 M 1.601562 -2.820312 C 1.601562 -2.085938 1.75 -1.542969 2.046875 -1.191406 C 2.34375 -0.839844 2.703125 -0.664062 3.125 -0.664062 C 3.554688 -0.664062 3.921875 -0.847656 4.230469 -1.210938 C 4.535156 -1.574219 4.6875 -2.136719 4.6875 -2.898438 C 4.6875 -3.628906 4.539062 -4.171875 4.242188 -4.53125 C 3.941406 -4.894531 3.585938 -5.074219 3.167969 -5.074219 C 2.757812 -5.074219 2.394531 -4.882812 2.074219 -4.5 C 1.757812 -4.113281 1.601562 -3.554688 1.601562 -2.820312 Z M 1.601562 -2.820312 "/>
</g>
<g id="glyph-1-15">
<path d="M 2.835938 -0.863281 L 2.976562 -0.0117188 C 2.703125 0.046875 2.460938 0.0742188 2.246094 0.0742188 C 1.894531 0.0742188 1.621094 0.0195312 1.429688 -0.0898438 C 1.234375 -0.203125 1.097656 -0.347656 1.019531 -0.527344 C 0.941406 -0.710938 0.902344 -1.089844 0.902344 -1.671875 L 0.902344 -4.953125 L 0.195312 -4.953125 L 0.195312 -5.703125 L 0.902344 -5.703125 L 0.902344 -7.117188 L 1.863281 -7.695312 L 1.863281 -5.703125 L 2.835938 -5.703125 L 2.835938 -4.953125 L 1.863281 -4.953125 L 1.863281 -1.617188 C 1.863281 -1.339844 1.878906 -1.164062 1.914062 -1.085938 C 1.949219 -1.007812 2.003906 -0.945312 2.082031 -0.898438 C 2.160156 -0.851562 2.269531 -0.828125 2.410156 -0.828125 C 2.519531 -0.828125 2.660156 -0.839844 2.835938 -0.863281 Z M 2.835938 -0.863281 "/>
</g>
<g id="glyph-1-16">
<path d="M 0.339844 -1.703125 L 1.292969 -1.851562 C 1.347656 -1.46875 1.496094 -1.175781 1.742188 -0.972656 C 1.988281 -0.769531 2.332031 -0.664062 2.773438 -0.664062 C 3.214844 -0.664062 3.546875 -0.757812 3.757812 -0.9375 C 3.976562 -1.117188 4.082031 -1.332031 4.082031 -1.574219 C 4.082031 -1.792969 3.988281 -1.964844 3.796875 -2.089844 C 3.664062 -2.175781 3.335938 -2.285156 2.808594 -2.417969 C 2.101562 -2.597656 1.609375 -2.75 1.335938 -2.882812 C 1.0625 -3.011719 0.851562 -3.191406 0.710938 -3.425781 C 0.570312 -3.65625 0.5 -3.910156 0.5 -4.1875 C 0.5 -4.445312 0.558594 -4.679688 0.675781 -4.894531 C 0.789062 -5.113281 0.949219 -5.292969 1.148438 -5.4375 C 1.300781 -5.546875 1.503906 -5.640625 1.765625 -5.71875 C 2.023438 -5.792969 2.300781 -5.832031 2.601562 -5.832031 C 3.046875 -5.832031 3.441406 -5.769531 3.777344 -5.640625 C 4.117188 -5.511719 4.367188 -5.335938 4.527344 -5.117188 C 4.6875 -4.894531 4.800781 -4.601562 4.859375 -4.234375 L 3.914062 -4.101562 C 3.871094 -4.398438 3.75 -4.625 3.542969 -4.789062 C 3.335938 -4.957031 3.046875 -5.039062 2.667969 -5.039062 C 2.226562 -5.039062 1.910156 -4.964844 1.71875 -4.816406 C 1.527344 -4.671875 1.433594 -4.5 1.433594 -4.300781 C 1.433594 -4.175781 1.472656 -4.0625 1.550781 -3.964844 C 1.632812 -3.859375 1.753906 -3.773438 1.921875 -3.707031 C 2.019531 -3.671875 2.304688 -3.585938 2.777344 -3.460938 C 3.460938 -3.277344 3.9375 -3.125 4.207031 -3.011719 C 4.480469 -2.894531 4.691406 -2.726562 4.84375 -2.503906 C 5 -2.28125 5.074219 -2.003906 5.074219 -1.675781 C 5.074219 -1.351562 4.980469 -1.050781 4.792969 -0.765625 C 4.605469 -0.480469 4.335938 -0.261719 3.980469 -0.105469 C 3.625 0.0507812 3.222656 0.128906 2.777344 0.128906 C 2.035156 0.128906 1.472656 -0.0234375 1.082031 -0.332031 C 0.695312 -0.640625 0.445312 -1.097656 0.339844 -1.703125 Z M 0.339844 -1.703125 "/>
</g>
<g id="glyph-2-0">
<path d="M -2.53125 -0.496094 L -2.617188 -1.476562 C -2.222656 -1.523438 -1.898438 -1.632812 -1.644531 -1.800781 C -1.394531 -1.972656 -1.191406 -2.234375 -1.035156 -2.59375 C -0.878906 -2.953125 -0.800781 -3.355469 -0.800781 -3.804688 C -0.800781 -4.199219 -0.859375 -4.550781 -0.976562 -4.855469 C -1.09375 -5.160156 -1.257812 -5.386719 -1.464844 -5.535156 C -1.667969 -5.683594 -1.894531 -5.757812 -2.136719 -5.757812 C -2.382812 -5.757812 -2.601562 -5.6875 -2.785156 -5.542969 C -2.96875 -5.398438 -3.125 -5.164062 -3.25 -4.835938 C -3.332031 -4.621094 -3.460938 -4.15625 -3.632812 -3.433594 C -3.808594 -2.707031 -3.972656 -2.203125 -4.125 -1.914062 C -4.320312 -1.535156 -4.566406 -1.257812 -4.859375 -1.070312 C -5.148438 -0.886719 -5.476562 -0.796875 -5.839844 -0.796875 C -6.234375 -0.796875 -6.605469 -0.90625 -6.953125 -1.132812 C -7.296875 -1.359375 -7.5625 -1.6875 -7.738281 -2.121094 C -7.917969 -2.554688 -8.007812 -3.035156 -8.007812 -3.566406 C -8.007812 -4.148438 -7.914062 -4.664062 -7.726562 -5.109375 C -7.539062 -5.554688 -7.261719 -5.898438 -6.898438 -6.140625 C -6.53125 -6.378906 -6.117188 -6.507812 -5.65625 -6.527344 L -5.582031 -5.527344 C -6.078125 -5.472656 -6.453125 -5.292969 -6.707031 -4.980469 C -6.960938 -4.671875 -7.089844 -4.214844 -7.089844 -3.609375 C -7.089844 -2.980469 -6.972656 -2.519531 -6.742188 -2.230469 C -6.511719 -1.945312 -6.234375 -1.800781 -5.90625 -1.800781 C -5.625 -1.800781 -5.390625 -1.902344 -5.210938 -2.105469 C -5.027344 -2.304688 -4.839844 -2.828125 -4.648438 -3.675781 C -4.457031 -4.523438 -4.289062 -5.105469 -4.148438 -5.417969 C -3.933594 -5.878906 -3.667969 -6.214844 -3.34375 -6.433594 C -3.019531 -6.652344 -2.644531 -6.761719 -2.222656 -6.761719 C -1.804688 -6.761719 -1.410156 -6.640625 -1.039062 -6.402344 C -0.667969 -6.164062 -0.378906 -5.816406 -0.175781 -5.367188 C 0.03125 -4.917969 0.132812 -4.414062 0.132812 -3.851562 C 0.132812 -3.136719 0.03125 -2.542969 -0.175781 -2.058594 C -0.386719 -1.578125 -0.699219 -1.199219 -1.113281 -0.925781 C -1.53125 -0.652344 -2.003906 -0.507812 -2.53125 -0.496094 Z M -2.53125 -0.496094 "/>
</g>
<g id="glyph-2-1">
<path d="M 0 -0.726562 L -7.875 -0.726562 L -7.875 -1.691406 L -5.046875 -1.691406 C -5.570312 -2.144531 -5.832031 -2.710938 -5.832031 -3.398438 C -5.832031 -3.824219 -5.75 -4.1875 -5.582031 -4.5 C -5.417969 -4.8125 -5.1875 -5.035156 -4.894531 -5.167969 C -4.597656 -5.304688 -4.171875 -5.371094 -3.613281 -5.371094 L 0 -5.371094 L 0 -4.40625 L -3.613281 -4.40625 C -4.097656 -4.40625 -4.449219 -4.300781 -4.671875 -4.089844 C -4.890625 -3.878906 -5 -3.585938 -5 -3.203125 C -5 -2.914062 -4.925781 -2.644531 -4.777344 -2.394531 C -4.628906 -2.140625 -4.425781 -1.960938 -4.171875 -1.851562 C -3.917969 -1.746094 -3.566406 -1.691406 -3.121094 -1.691406 L 0 -1.691406 Z M 0 -0.726562 "/>
</g>
<g id="glyph-2-2">
<path d="M -0.703125 -4.445312 C -0.398438 -4.089844 -0.183594 -3.746094 -0.0585938 -3.414062 C 0.0664062 -3.082031 0.128906 -2.726562 0.128906 -2.347656 C 0.128906 -1.71875 -0.0234375 -1.238281 -0.332031 -0.902344 C -0.636719 -0.566406 -1.027344 -0.398438 -1.503906 -0.398438 C -1.78125 -0.398438 -2.039062 -0.460938 -2.269531 -0.589844 C -2.5 -0.714844 -2.6875 -0.882812 -2.824219 -1.085938 C -2.964844 -1.292969 -3.070312 -1.527344 -3.140625 -1.785156 C -3.191406 -1.972656 -3.242188 -2.257812 -3.289062 -2.640625 C -3.378906 -3.421875 -3.492188 -3.996094 -3.621094 -4.367188 C -3.753906 -4.371094 -3.835938 -4.371094 -3.871094 -4.371094 C -4.265625 -4.371094 -4.542969 -4.28125 -4.703125 -4.097656 C -4.921875 -3.851562 -5.03125 -3.484375 -5.03125 -2.996094 C -5.03125 -2.542969 -4.953125 -2.207031 -4.792969 -1.988281 C -4.632812 -1.773438 -4.351562 -1.613281 -3.949219 -1.507812 L -4.078125 -0.5625 C -4.480469 -0.648438 -4.808594 -0.792969 -5.058594 -0.988281 C -5.304688 -1.183594 -5.496094 -1.46875 -5.632812 -1.84375 C -5.765625 -2.214844 -5.832031 -2.644531 -5.832031 -3.136719 C -5.832031 -3.625 -5.777344 -4.019531 -5.660156 -4.324219 C -5.546875 -4.628906 -5.402344 -4.851562 -5.230469 -4.996094 C -5.054688 -5.136719 -4.835938 -5.238281 -4.570312 -5.296875 C -4.40625 -5.328125 -4.109375 -5.34375 -3.679688 -5.34375 L -2.390625 -5.34375 C -1.492188 -5.34375 -0.921875 -5.363281 -0.683594 -5.40625 C -0.445312 -5.445312 -0.21875 -5.527344 0 -5.648438 L 0 -4.640625 C -0.199219 -4.539062 -0.433594 -4.476562 -0.703125 -4.445312 M -2.863281 -4.367188 C -2.71875 -4.015625 -2.597656 -3.488281 -2.496094 -2.789062 C -2.441406 -2.390625 -2.375 -2.109375 -2.304688 -1.945312 C -2.234375 -1.78125 -2.128906 -1.652344 -1.988281 -1.5625 C -1.851562 -1.472656 -1.699219 -1.429688 -1.53125 -1.429688 C -1.273438 -1.429688 -1.058594 -1.527344 -0.886719 -1.722656 C -0.714844 -1.917969 -0.628906 -2.203125 -0.628906 -2.578125 C -0.628906 -2.949219 -0.710938 -3.28125 -0.871094 -3.570312 C -1.035156 -3.863281 -1.257812 -4.074219 -1.542969 -4.210938 C -1.761719 -4.316406 -2.082031 -4.367188 -2.507812 -4.367188 Z M -2.863281 -4.367188 "/>
</g>
<g id="glyph-2-3">
<path d="M 0 -0.726562 L -5.703125 -0.726562 L -5.703125 -1.59375 L -4.894531 -1.59375 C -5.519531 -2.015625 -5.832031 -2.621094 -5.832031 -3.410156 C -5.832031 -3.753906 -5.769531 -4.070312 -5.648438 -4.359375 C -5.523438 -4.648438 -5.363281 -4.863281 -5.160156 -5.007812 C -4.960938 -5.148438 -4.722656 -5.25 -4.445312 -5.304688 C -4.269531 -5.34375 -3.953125 -5.359375 -3.507812 -5.359375 L 0 -5.359375 L 0 -4.394531 L -3.46875 -4.394531 C -3.863281 -4.394531 -4.15625 -4.355469 -4.351562 -4.28125 C -4.546875 -4.207031 -4.703125 -4.070312 -4.820312 -3.878906 C -4.9375 -3.6875 -4.996094 -3.464844 -4.996094 -3.207031 C -4.996094 -2.792969 -4.863281 -2.4375 -4.601562 -2.140625 C -4.339844 -1.839844 -3.84375 -1.691406 -3.117188 -1.691406 L 0 -1.691406 Z M 0 -0.726562 "/>
</g>
<g id="glyph-2-4">
<path d="M -2.851562 -0.367188 C -3.910156 -0.367188 -4.691406 -0.660156 -5.199219 -1.246094 C -5.621094 -1.738281 -5.832031 -2.335938 -5.832031 -3.039062 C -5.832031 -3.824219 -5.574219 -4.464844 -5.0625 -4.960938 C -4.546875 -5.460938 -3.839844 -5.710938 -2.933594 -5.710938 C -2.199219 -5.710938 -1.621094 -5.597656 -1.199219 -5.378906 C -0.78125 -5.160156 -0.453125 -4.839844 -0.21875 -4.417969 C 0.0117188 -3.996094 0.128906 -3.539062 0.128906 -3.039062 C 0.128906 -2.242188 -0.128906 -1.597656 -0.640625 -1.105469 C -1.152344 -0.613281 -1.890625 -0.367188 -2.851562 -0.367188 M -2.851562 -1.359375 C -2.121094 -1.359375 -1.574219 -1.519531 -1.210938 -1.835938 C -0.847656 -2.15625 -0.664062 -2.554688 -0.664062 -3.039062 C -0.664062 -3.519531 -0.847656 -3.917969 -1.214844 -4.238281 C -1.578125 -4.554688 -2.136719 -4.714844 -2.882812 -4.714844 C -3.589844 -4.714844 -4.125 -4.554688 -4.488281 -4.234375 C -4.851562 -3.914062 -5.03125 -3.515625 -5.03125 -3.039062 C -5.03125 -2.558594 -4.851562 -2.15625 -4.492188 -1.835938 C -4.128906 -1.519531 -3.582031 -1.359375 -2.851562 -1.359375 Z M -2.851562 -1.359375 "/>
</g>
<g id="glyph-2-5">
</g>
<g id="glyph-2-6">
<path d="M 0 -4.425781 L -0.71875 -4.425781 C -0.152344 -4.0625 0.128906 -3.53125 0.128906 -2.832031 C 0.128906 -2.375 0.00390625 -1.957031 -0.246094 -1.578125 C -0.496094 -1.195312 -0.847656 -0.898438 -1.296875 -0.691406 C -1.746094 -0.480469 -2.261719 -0.375 -2.847656 -0.375 C -3.414062 -0.375 -3.933594 -0.472656 -4.394531 -0.660156 C -4.859375 -0.851562 -5.214844 -1.136719 -5.460938 -1.515625 C -5.710938 -1.894531 -5.832031 -2.320312 -5.832031 -2.789062 C -5.832031 -3.132812 -5.761719 -3.4375 -5.617188 -3.707031 C -5.46875 -3.976562 -5.28125 -4.191406 -5.046875 -4.359375 L -7.875 -4.363281 L -7.875 -5.324219 L 0 -5.324219 L 0 -4.425781 M -2.847656 -1.371094 C -2.117188 -1.371094 -1.570312 -1.523438 -1.207031 -1.832031 C -0.847656 -2.140625 -0.664062 -2.503906 -0.664062 -2.921875 C -0.664062 -3.34375 -0.839844 -3.703125 -1.183594 -4 C -1.53125 -4.292969 -2.058594 -4.441406 -2.765625 -4.441406 C -3.546875 -4.441406 -4.121094 -4.292969 -4.484375 -3.992188 C -4.851562 -3.691406 -5.03125 -3.320312 -5.03125 -2.878906 C -5.03125 -2.449219 -4.855469 -2.089844 -4.507812 -1.800781 C -4.15625 -1.515625 -3.601562 -1.371094 -2.847656 -1.371094 Z M -2.847656 -1.371094 "/>
</g>
<g id="glyph-2-7">
<path d="M -6.761719 -0.730469 L -7.875 -0.730469 L -7.875 -1.699219 L -6.761719 -1.699219 L -6.761719 -0.730469 M 0 -0.730469 L -5.703125 -0.730469 L -5.703125 -1.699219 L 0 -1.695312 Z M 0 -0.730469 "/>
</g>
<g id="glyph-2-8">
<path d="M 0 -2.308594 L -5.703125 -0.140625 L -5.703125 -1.160156 L -2.289062 -2.382812 C -1.917969 -2.515625 -1.535156 -2.640625 -1.136719 -2.75 C -1.4375 -2.835938 -1.800781 -2.957031 -2.222656 -3.109375 L -5.703125 -4.378906 L -5.703125 -5.371094 L 0 -3.210938 Z M 0 -2.308594 "/>
</g>
<g id="glyph-2-9">
<path d="M -1.835938 -4.628906 L -1.714844 -5.628906 C -1.128906 -5.472656 -0.675781 -5.179688 -0.355469 -4.753906 C -0.03125 -4.328125 0.128906 -3.78125 0.128906 -3.121094 C 0.128906 -2.285156 -0.128906 -1.625 -0.640625 -1.136719 C -1.15625 -0.648438 -1.875 -0.402344 -2.804688 -0.402344 C -3.761719 -0.402344 -4.507812 -0.648438 -5.039062 -1.144531 C -5.566406 -1.636719 -5.832031 -2.277344 -5.832031 -3.066406 C -5.832031 -3.828125 -5.574219 -4.453125 -5.054688 -4.9375 C -4.535156 -5.417969 -3.804688 -5.660156 -2.863281 -5.660156 C -2.804688 -5.660156 -2.71875 -5.660156 -2.605469 -5.65625 L -2.605469 -1.402344 C -1.976562 -1.4375 -1.5 -1.613281 -1.164062 -1.933594 C -0.832031 -2.253906 -0.664062 -2.648438 -0.664062 -3.125 C -0.664062 -3.480469 -0.757812 -3.78125 -0.945312 -4.035156 C -1.132812 -4.285156 -1.429688 -4.484375 -1.835938 -4.628906 M -3.398438 -1.457031 L -3.398438 -4.640625 C -3.878906 -4.597656 -4.238281 -4.476562 -4.480469 -4.273438 C -4.851562 -3.96875 -5.039062 -3.566406 -5.039062 -3.078125 C -5.039062 -2.632812 -4.890625 -2.261719 -4.59375 -1.957031 C -4.296875 -1.65625 -3.898438 -1.488281 -3.398438 -1.457031 Z M -3.398438 -1.457031 "/>
</g>
<g id="glyph-2-10">
<path d="M 0 -0.714844 L -5.703125 -0.714844 L -5.703125 -1.585938 L -4.839844 -1.585938 C -5.242188 -1.804688 -5.511719 -2.011719 -5.640625 -2.199219 C -5.769531 -2.386719 -5.832031 -2.59375 -5.832031 -2.820312 C -5.832031 -3.144531 -5.730469 -3.476562 -5.523438 -3.8125 L -4.625 -3.480469 C -4.765625 -3.246094 -4.832031 -3.007812 -4.835938 -2.773438 C -4.832031 -2.558594 -4.769531 -2.371094 -4.644531 -2.203125 C -4.515625 -2.035156 -4.339844 -1.914062 -4.113281 -1.84375 C -3.769531 -1.734375 -3.394531 -1.679688 -2.984375 -1.679688 L 0 -1.679688 Z M 0 -0.714844 "/>
</g>
<g id="glyph-2-11">
<path d="M -1.703125 -0.339844 L -1.851562 -1.292969 C -1.46875 -1.347656 -1.175781 -1.496094 -0.972656 -1.742188 C -0.769531 -1.988281 -0.664062 -2.332031 -0.664062 -2.773438 C -0.664062 -3.214844 -0.757812 -3.546875 -0.9375 -3.757812 C -1.117188 -3.976562 -1.332031 -4.082031 -1.574219 -4.082031 C -1.792969 -4.082031 -1.964844 -3.988281 -2.089844 -3.796875 C -2.175781 -3.664062 -2.285156 -3.335938 -2.417969 -2.808594 C -2.597656 -2.101562 -2.75 -1.609375 -2.882812 -1.335938 C -3.011719 -1.0625 -3.191406 -0.851562 -3.425781 -0.710938 C -3.65625 -0.570312 -3.910156 -0.5 -4.1875 -0.5 C -4.445312 -0.5 -4.679688 -0.558594 -4.894531 -0.675781 C -5.113281 -0.789062 -5.292969 -0.949219 -5.4375 -1.148438 C -5.546875 -1.300781 -5.640625 -1.503906 -5.71875 -1.765625 C -5.792969 -2.023438 -5.832031 -2.300781 -5.832031 -2.601562 C -5.832031 -3.046875 -5.769531 -3.441406 -5.640625 -3.777344 C -5.511719 -4.117188 -5.335938 -4.367188 -5.117188 -4.527344 C -4.894531 -4.6875 -4.601562 -4.800781 -4.234375 -4.859375 L -4.101562 -3.914062 C -4.398438 -3.871094 -4.625 -3.75 -4.789062 -3.542969 C -4.957031 -3.335938 -5.039062 -3.046875 -5.039062 -2.667969 C -5.039062 -2.226562 -4.964844 -1.910156 -4.816406 -1.71875 C -4.671875 -1.527344 -4.5 -1.433594 -4.300781 -1.433594 C -4.175781 -1.433594 -4.0625 -1.472656 -3.964844 -1.550781 C -3.859375 -1.632812 -3.773438 -1.753906 -3.707031 -1.921875 C -3.671875 -2.019531 -3.585938 -2.304688 -3.460938 -2.777344 C -3.277344 -3.460938 -3.125 -3.9375 -3.011719 -4.207031 C -2.894531 -4.480469 -2.726562 -4.691406 -2.503906 -4.84375 C -2.28125 -5 -2.003906 -5.074219 -1.675781 -5.074219 C -1.351562 -5.074219 -1.050781 -4.980469 -0.765625 -4.792969 C -0.480469 -4.605469 -0.261719 -4.335938 -0.105469 -3.980469 C 0.0507812 -3.625 0.128906 -3.222656 0.128906 -2.777344 C 0.128906 -2.035156 -0.0234375 -1.472656 -0.332031 -1.082031 C -0.640625 -0.695312 -1.097656 -0.445312 -1.703125 -0.339844 Z M -1.703125 -0.339844 "/>
</g>
<g id="glyph-2-12">
<path d="M -0.863281 -2.835938 L -0.0117188 -2.976562 C 0.046875 -2.703125 0.0742188 -2.460938 0.0742188 -2.246094 C 0.0742188 -1.894531 0.0195312 -1.621094 -0.0898438 -1.429688 C -0.203125 -1.234375 -0.347656 -1.097656 -0.527344 -1.019531 C -0.710938 -0.941406 -1.089844 -0.902344 -1.671875 -0.902344 L -4.953125 -0.902344 L -4.953125 -0.195312 L -5.703125 -0.195312 L -5.703125 -0.902344 L -7.117188 -0.902344 L -7.695312 -1.863281 L -5.703125 -1.863281 L -5.703125 -2.835938 L -4.953125 -2.835938 L -4.953125 -1.863281 L -1.617188 -1.863281 C -1.339844 -1.863281 -1.164062 -1.878906 -1.085938 -1.914062 C -1.007812 -1.949219 -0.945312 -2.003906 -0.898438 -2.082031 C -0.851562 -2.160156 -0.828125 -2.269531 -0.828125 -2.410156 C -0.828125 -2.519531 -0.839844 -2.660156 -0.863281 -2.835938 Z M -0.863281 -2.835938 "/>
</g>
<g id="glyph-2-13">
<path d="M 2.195312 -0.683594 L 1.289062 -0.574219 C 1.347656 -0.785156 1.375 -0.96875 1.375 -1.128906 C 1.375 -1.34375 1.339844 -1.515625 1.265625 -1.644531 C 1.195312 -1.773438 1.09375 -1.878906 0.96875 -1.960938 C 0.871094 -2.019531 0.628906 -2.121094 0.246094 -2.257812 C 0.195312 -2.273438 0.113281 -2.300781 0.0117188 -2.34375 L -5.703125 -0.175781 L -5.703125 -1.21875 L -2.402344 -2.40625 C -1.980469 -2.558594 -1.542969 -2.699219 -1.078125 -2.820312 C -1.523438 -2.929688 -1.957031 -3.0625 -2.378906 -3.21875 L -5.703125 -4.4375 L -5.703125 -5.402344 L 0.0976562 -3.234375 C 0.722656 -3 1.15625 -2.820312 1.390625 -2.691406 C 1.710938 -2.519531 1.945312 -2.320312 2.09375 -2.101562 C 2.242188 -1.878906 2.316406 -1.613281 2.316406 -1.304688 C 2.316406 -1.117188 2.277344 -0.910156 2.195312 -0.683594 Z M 2.195312 -0.683594 "/>
</g>
<g id="glyph-2-14">
<path d="M 0 -0.0820312 L -2.964844 -2.164062 L -5.703125 -0.238281 L -5.703125 -1.445312 L -4.367188 -2.320312 C -4.113281 -2.484375 -3.898438 -2.617188 -3.726562 -2.71875 C -3.964844 -2.875 -4.171875 -3.019531 -4.355469 -3.152344 L -5.703125 -4.113281 L -5.703125 -5.269531 L -3.019531 -3.296875 L 0 -5.417969 L 0 -4.234375 L -1.773438 -3.0625 L -2.25 -2.75 L 0 -1.25 Z M 0 -0.0820312 "/>
</g>
</g>
<clipPath id="clip-0">
<path clip-rule="nonzero" d="M 37.574219 5.480469 L 282.523438 5.480469 L 282.523438 252.511719 L 37.574219 252.511719 Z M 37.574219 5.480469 "/>
</clipPath>
<clipPath id="clip-1">
<path clip-rule="nonzero" d="M 37.574219 223 L 282.523438 223 L 282.523438 224 L 37.574219 224 Z M 37.574219 223 "/>
</clipPath>
<clipPath id="clip-2">
<path clip-rule="nonzero" d="M 37.574219 175 L 282.523438 175 L 282.523438 177 L 37.574219 177 Z M 37.574219 175 "/>
</clipPath>
<clipPath id="clip-3">
<path clip-rule="nonzero" d="M 37.574219 128 L 282.523438 128 L 282.523438 129 L 37.574219 129 Z M 37.574219 128 "/>
</clipPath>
<clipPath id="clip-4">
<path clip-rule="nonzero" d="M 37.574219 80 L 282.523438 80 L 282.523438 82 L 37.574219 82 Z M 37.574219 80 "/>
</clipPath>
<clipPath id="clip-5">
<path clip-rule="nonzero" d="M 37.574219 33 L 282.523438 33 L 282.523438 34 L 37.574219 34 Z M 37.574219 33 "/>
</clipPath>
<clipPath id="clip-6">
<path clip-rule="nonzero" d="M 83 5.480469 L 85 5.480469 L 85 252.511719 L 83 252.511719 Z M 83 5.480469 "/>
</clipPath>
<clipPath id="clip-7">
<path clip-rule="nonzero" d="M 134 5.480469 L 136 5.480469 L 136 252.511719 L 134 252.511719 Z M 134 5.480469 "/>
</clipPath>
<clipPath id="clip-8">
<path clip-rule="nonzero" d="M 185 5.480469 L 186 5.480469 L 186 252.511719 L 185 252.511719 Z M 185 5.480469 "/>
</clipPath>
<clipPath id="clip-9">
<path clip-rule="nonzero" d="M 235 5.480469 L 237 5.480469 L 237 252.511719 L 235 252.511719 Z M 235 5.480469 "/>
</clipPath>
<clipPath id="clip-10">
<path clip-rule="nonzero" d="M 37.574219 246 L 282.523438 246 L 282.523438 248 L 37.574219 248 Z M 37.574219 246 "/>
</clipPath>
<clipPath id="clip-11">
<path clip-rule="nonzero" d="M 37.574219 199 L 282.523438 199 L 282.523438 201 L 37.574219 201 Z M 37.574219 199 "/>
</clipPath>
<clipPath id="clip-12">
<path clip-rule="nonzero" d="M 37.574219 151 L 282.523438 151 L 282.523438 153 L 37.574219 153 Z M 37.574219 151 "/>
</clipPath>
<clipPath id="clip-13">
<path clip-rule="nonzero" d="M 37.574219 104 L 282.523438 104 L 282.523438 106 L 37.574219 106 Z M 37.574219 104 "/>
</clipPath>
<clipPath id="clip-14">
<path clip-rule="nonzero" d="M 37.574219 56 L 282.523438 56 L 282.523438 58 L 37.574219 58 Z M 37.574219 56 "/>
</clipPath>
<clipPath id="clip-15">
<path clip-rule="nonzero" d="M 37.574219 9 L 282.523438 9 L 282.523438 11 L 37.574219 11 Z M 37.574219 9 "/>
</clipPath>
<clipPath id="clip-16">
<path clip-rule="nonzero" d="M 58 5.480469 L 60 5.480469 L 60 252.511719 L 58 252.511719 Z M 58 5.480469 "/>
</clipPath>
<clipPath id="clip-17">
<path clip-rule="nonzero" d="M 108 5.480469 L 110 5.480469 L 110 252.511719 L 108 252.511719 Z M 108 5.480469 "/>
</clipPath>
<clipPath id="clip-18">
<path clip-rule="nonzero" d="M 159 5.480469 L 161 5.480469 L 161 252.511719 L 159 252.511719 Z M 159 5.480469 "/>
</clipPath>
<clipPath id="clip-19">
<path clip-rule="nonzero" d="M 210 5.480469 L 212 5.480469 L 212 252.511719 L 210 252.511719 Z M 210 5.480469 "/>
</clipPath>
<clipPath id="clip-20">
<path clip-rule="nonzero" d="M 260 5.480469 L 262 5.480469 L 262 252.511719 L 260 252.511719 Z M 260 5.480469 "/>
</clipPath>
<clipPath id="clip-21">
<path clip-rule="nonzero" d="M 37.574219 5.480469 L 282.523438 5.480469 L 282.523438 252.511719 L 37.574219 252.511719 Z M 37.574219 5.480469 "/>
</clipPath>
</defs>
<rect x="-28.8" y="-28.8" width="345.6" height="345.6" fill="rgb(100%, 100%, 100%)" fill-opacity="1"/>
<rect x="-28.8" y="-28.8" width="345.6" height="345.6" fill="rgb(100%, 100%, 100%)" fill-opacity="1"/>
<path fill="none" stroke-width="1.066978" stroke-linecap="round" stroke-linejoin="round" stroke="rgb(100%, 100%, 100%)" stroke-opacity="1" stroke-miterlimit="10" d="M 0 288 L 288 288 L 288 0 L 0 0 Z M 0 288 "/>
<g clip-path="url(#clip-0)">
<path fill-rule="nonzero" fill="rgb(100%, 100%, 100%)" fill-opacity="1" d="M 37.574219 252.507812 L 282.523438 252.507812 L 282.523438 5.476562 L 37.574219 5.476562 Z M 37.574219 252.507812 "/>
</g>
<g clip-path="url(#clip-1)">
<path fill="none" stroke-width="0.533489" stroke-linecap="butt" stroke-linejoin="round" stroke="rgb(92.156863%, 92.156863%, 92.156863%)" stroke-opacity="1" stroke-miterlimit="10" d="M 37.574219 223.4375 L 282.519531 223.4375 "/>
</g>
<g clip-path="url(#clip-2)">
<path fill="none" stroke-width="0.533489" stroke-linecap="butt" stroke-linejoin="round" stroke="rgb(92.156863%, 92.156863%, 92.156863%)" stroke-opacity="1" stroke-miterlimit="10" d="M 37.574219 175.929688 L 282.519531 175.929688 "/>
</g>
<g clip-path="url(#clip-3)">
<path fill="none" stroke-width="0.533489" stroke-linecap="butt" stroke-linejoin="round" stroke="rgb(92.156863%, 92.156863%, 92.156863%)" stroke-opacity="1" stroke-miterlimit="10" d="M 37.574219 128.425781 L 282.519531 128.425781 "/>
</g>
<g clip-path="url(#clip-4)">
<path fill="none" stroke-width="0.533489" stroke-linecap="butt" stroke-linejoin="round" stroke="rgb(92.156863%, 92.156863%, 92.156863%)" stroke-opacity="1" stroke-miterlimit="10" d="M 37.574219 80.921875 L 282.519531 80.921875 "/>
</g>
<g clip-path="url(#clip-5)">
<path fill="none" stroke-width="0.533489" stroke-linecap="butt" stroke-linejoin="round" stroke="rgb(92.156863%, 92.156863%, 92.156863%)" stroke-opacity="1" stroke-miterlimit="10" d="M 37.574219 33.414062 L 282.519531 33.414062 "/>
</g>
<g clip-path="url(#clip-6)">
<path fill="none" stroke-width="0.533489" stroke-linecap="butt" stroke-linejoin="round" stroke="rgb(92.156863%, 92.156863%, 92.156863%)" stroke-opacity="1" stroke-miterlimit="10" d="M 84.132812 252.507812 L 84.132812 5.480469 "/>
</g>
<g clip-path="url(#clip-7)">
<path fill="none" stroke-width="0.533489" stroke-linecap="butt" stroke-linejoin="round" stroke="rgb(92.156863%, 92.156863%, 92.156863%)" stroke-opacity="1" stroke-miterlimit="10" d="M 134.742188 252.507812 L 134.742188 5.480469 "/>
</g>
<g clip-path="url(#clip-8)">
<path fill="none" stroke-width="0.533489" stroke-linecap="butt" stroke-linejoin="round" stroke="rgb(92.156863%, 92.156863%, 92.156863%)" stroke-opacity="1" stroke-miterlimit="10" d="M 185.351562 252.507812 L 185.351562 5.480469 "/>
</g>
<g clip-path="url(#clip-9)">
<path fill="none" stroke-width="0.533489" stroke-linecap="butt" stroke-linejoin="round" stroke="rgb(92.156863%, 92.156863%, 92.156863%)" stroke-opacity="1" stroke-miterlimit="10" d="M 235.960938 252.507812 L 235.960938 5.480469 "/>
</g>
<g clip-path="url(#clip-10)">
<path fill="none" stroke-width="1.066978" stroke-linecap="butt" stroke-linejoin="round" stroke="rgb(92.156863%, 92.156863%, 92.156863%)" stroke-opacity="1" stroke-miterlimit="10" d="M 37.574219 247.1875 L 282.519531 247.1875 "/>
</g>
<g clip-path="url(#clip-11)">
<path fill="none" stroke-width="1.066978" stroke-linecap="butt" stroke-linejoin="round" stroke="rgb(92.156863%, 92.156863%, 92.156863%)" stroke-opacity="1" stroke-miterlimit="10" d="M 37.574219 199.683594 L 282.519531 199.683594 "/>
</g>
<g clip-path="url(#clip-12)">
<path fill="none" stroke-width="1.066978" stroke-linecap="butt" stroke-linejoin="round" stroke="rgb(92.156863%, 92.156863%, 92.156863%)" stroke-opacity="1" stroke-miterlimit="10" d="M 37.574219 152.179688 L 282.519531 152.179688 "/>
</g>
<g clip-path="url(#clip-13)">
<path fill="none" stroke-width="1.066978" stroke-linecap="butt" stroke-linejoin="round" stroke="rgb(92.156863%, 92.156863%, 92.156863%)" stroke-opacity="1" stroke-miterlimit="10" d="M 37.574219 104.671875 L 282.519531 104.671875 "/>
</g>
<g clip-path="url(#clip-14)">
<path fill="none" stroke-width="1.066978" stroke-linecap="butt" stroke-linejoin="round" stroke="rgb(92.156863%, 92.156863%, 92.156863%)" stroke-opacity="1" stroke-miterlimit="10" d="M 37.574219 57.167969 L 282.519531 57.167969 "/>
</g>
<g clip-path="url(#clip-15)">
<path fill="none" stroke-width="1.066978" stroke-linecap="butt" stroke-linejoin="round" stroke="rgb(92.156863%, 92.156863%, 92.156863%)" stroke-opacity="1" stroke-miterlimit="10" d="M 37.574219 9.664062 L 282.519531 9.664062 "/>
</g>
<g clip-path="url(#clip-16)">
<path fill="none" stroke-width="1.066978" stroke-linecap="butt" stroke-linejoin="round" stroke="rgb(92.156863%, 92.156863%, 92.156863%)" stroke-opacity="1" stroke-miterlimit="10" d="M 58.828125 252.507812 L 58.828125 5.480469 "/>
</g>
<g clip-path="url(#clip-17)">
<path fill="none" stroke-width="1.066978" stroke-linecap="butt" stroke-linejoin="round" stroke="rgb(92.156863%, 92.156863%, 92.156863%)" stroke-opacity="1" stroke-miterlimit="10" d="M 109.4375 252.507812 L 109.4375 5.480469 "/>
</g>
<g clip-path="url(#clip-18)">
<path fill="none" stroke-width="1.066978" stroke-linecap="butt" stroke-linejoin="round" stroke="rgb(92.156863%, 92.156863%, 92.156863%)" stroke-opacity="1" stroke-miterlimit="10" d="M 160.046875 252.507812 L 160.046875 5.480469 "/>
</g>
<g clip-path="url(#clip-19)">
<path fill="none" stroke-width="1.066978" stroke-linecap="butt" stroke-linejoin="round" stroke="rgb(92.156863%, 92.156863%, 92.156863%)" stroke-opacity="1" stroke-miterlimit="10" d="M 210.65625 252.507812 L 210.65625 5.480469 "/>
</g>
<g clip-path="url(#clip-20)">
<path fill="none" stroke-width="1.066978" stroke-linecap="butt" stroke-linejoin="round" stroke="rgb(92.156863%, 92.156863%, 92.156863%)" stroke-opacity="1" stroke-miterlimit="10" d="M 261.265625 252.507812 L 261.265625 5.480469 "/>
</g>
<path fill-rule="nonzero" fill="rgb(100%, 80.392157%, 0%)" fill-opacity="1" stroke-width="0.708661" stroke-linecap="round" stroke-linejoin="round" stroke="rgb(0%, 0%, 0%)" stroke-opacity="1" stroke-miterlimit="10" d="M 101.269531 133.175781 C 101.269531 135.78125 97.359375 135.78125 97.359375 133.175781 C 97.359375 130.570312 101.269531 130.570312 101.269531 133.175781 "/>
<path fill-rule="nonzero" fill="rgb(100%, 80.392157%, 0%)" fill-opacity="1" stroke-width="0.708661" stroke-linecap="round" stroke-linejoin="round" stroke="rgb(0%, 0%, 0%)" stroke-opacity="1" stroke-miterlimit="10" d="M 151.878906 65.363281 C 151.878906 67.96875 147.96875 67.96875 147.96875 65.363281 C 147.96875 62.757812 151.878906 62.757812 151.878906 65.363281 "/>
<path fill-rule="nonzero" fill="rgb(100%, 80.392157%, 0%)" fill-opacity="1" stroke-width="0.708661" stroke-linecap="round" stroke-linejoin="round" stroke="rgb(0%, 0%, 0%)" stroke-opacity="1" stroke-miterlimit="10" d="M 222.730469 56.921875 C 222.730469 59.527344 218.824219 59.527344 218.824219 56.921875 C 218.824219 54.3125 222.730469 54.3125 222.730469 56.921875 "/>
<path fill-rule="nonzero" fill="rgb(100%, 80.392157%, 0%)" fill-opacity="1" stroke-width="0.708661" stroke-linecap="round" stroke-linejoin="round" stroke="rgb(0%, 0%, 0%)" stroke-opacity="1" stroke-miterlimit="10" d="M 253.097656 26.320312 C 253.097656 28.925781 249.1875 28.925781 249.1875 26.320312 C 249.1875 23.710938 253.097656 23.710938 253.097656 26.320312 "/>
<path fill-rule="nonzero" fill="rgb(100%, 80.392157%, 0%)" fill-opacity="1" stroke-width="0.708661" stroke-linecap="round" stroke-linejoin="round" stroke="rgb(0%, 0%, 0%)" stroke-opacity="1" stroke-miterlimit="10" d="M 141.757812 50.449219 C 141.757812 53.054688 137.847656 53.054688 137.847656 50.449219 C 137.847656 47.84375 141.757812 47.84375 141.757812 50.449219 "/>
<path fill-rule="nonzero" fill="rgb(100%, 80.392157%, 0%)" fill-opacity="1" stroke-width="0.708661" stroke-linecap="round" stroke-linejoin="round" stroke="rgb(0%, 0%, 0%)" stroke-opacity="1" stroke-miterlimit="10" d="M 70.90625 93.160156 C 70.90625 95.765625 66.996094 95.765625 66.996094 93.160156 C 66.996094 90.554688 70.90625 90.554688 70.90625 93.160156 "/>
<path fill-rule="nonzero" fill="rgb(100%, 80.392157%, 0%)" fill-opacity="1" stroke-width="0.708661" stroke-linecap="round" stroke-linejoin="round" stroke="rgb(0%, 0%, 0%)" stroke-opacity="1" stroke-miterlimit="10" d="M 212.609375 56.921875 C 212.609375 59.527344 208.699219 59.527344 208.699219 56.921875 C 208.699219 54.3125 212.609375 54.3125 212.609375 56.921875 "/>
<path fill-rule="nonzero" fill="rgb(100%, 80.392157%, 0%)" fill-opacity="1" stroke-width="0.708661" stroke-linecap="round" stroke-linejoin="round" stroke="rgb(0%, 0%, 0%)" stroke-opacity="1" stroke-miterlimit="10" d="M 212.609375 55.007812 C 212.609375 57.613281 208.699219 57.613281 208.699219 55.007812 C 208.699219 52.402344 212.609375 52.402344 212.609375 55.007812 "/>
<path fill-rule="nonzero" fill="rgb(100%, 80.392157%, 0%)" fill-opacity="1" stroke-width="0.708661" stroke-linecap="round" stroke-linejoin="round" stroke="rgb(0%, 0%, 0%)" stroke-opacity="1" stroke-miterlimit="10" d="M 121.515625 57.167969 C 121.515625 59.773438 117.605469 59.773438 117.605469 57.167969 C 117.605469 54.5625 121.515625 54.5625 121.515625 57.167969 "/>
<path fill-rule="nonzero" fill="rgb(100%, 80.392157%, 0%)" fill-opacity="1" stroke-width="0.708661" stroke-linecap="round" stroke-linejoin="round" stroke="rgb(0%, 0%, 0%)" stroke-opacity="1" stroke-miterlimit="10" d="M 253.097656 68.117188 C 253.097656 70.722656 249.1875 70.722656 249.1875 68.117188 C 249.1875 65.507812 253.097656 65.507812 253.097656 68.117188 "/>
<path fill-rule="nonzero" fill="rgb(100%, 80.392157%, 0%)" fill-opacity="1" stroke-width="0.708661" stroke-linecap="round" stroke-linejoin="round" stroke="rgb(0%, 0%, 0%)" stroke-opacity="1" stroke-miterlimit="10" d="M 202.488281 102.121094 C 202.488281 104.730469 198.578125 104.730469 198.578125 102.121094 C 198.578125 99.515625 202.488281 99.515625 202.488281 102.121094 "/>
<path fill-rule="nonzero" fill="rgb(100%, 80.392157%, 0%)" fill-opacity="1" stroke-width="0.708661" stroke-linecap="round" stroke-linejoin="round" stroke="rgb(0%, 0%, 0%)" stroke-opacity="1" stroke-miterlimit="10" d="M 131.636719 109.441406 C 131.636719 112.046875 127.726562 112.046875 127.726562 109.441406 C 127.726562 106.832031 131.636719 106.832031 131.636719 109.441406 "/>
<path fill-rule="nonzero" fill="rgb(100%, 80.392157%, 0%)" fill-opacity="1" stroke-width="0.708661" stroke-linecap="round" stroke-linejoin="round" stroke="rgb(0%, 0%, 0%)" stroke-opacity="1" stroke-miterlimit="10" d="M 131.636719 220.621094 C 131.636719 223.226562 127.726562 223.226562 127.726562 220.621094 C 127.726562 218.015625 131.636719 218.015625 131.636719 220.621094 "/>
<path fill-rule="nonzero" fill="rgb(100%, 80.392157%, 0%)" fill-opacity="1" stroke-width="0.708661" stroke-linecap="round" stroke-linejoin="round" stroke="rgb(0%, 0%, 0%)" stroke-opacity="1" stroke-miterlimit="10" d="M 242.976562 16.707031 C 242.976562 19.316406 239.066406 19.316406 239.066406 16.707031 C 239.066406 14.101562 242.976562 14.101562 242.976562 16.707031 "/>
<path fill-rule="nonzero" fill="rgb(100%, 80.392157%, 0%)" fill-opacity="1" stroke-width="0.708661" stroke-linecap="round" stroke-linejoin="round" stroke="rgb(0%, 0%, 0%)" stroke-opacity="1" stroke-miterlimit="10" d="M 172.125 196.355469 C 172.125 198.960938 168.214844 198.960938 168.214844 196.355469 C 168.214844 193.746094 172.125 193.746094 172.125 196.355469 "/>
<path fill-rule="nonzero" fill="rgb(100%, 80.392157%, 0%)" fill-opacity="1" stroke-width="0.708661" stroke-linecap="round" stroke-linejoin="round" stroke="rgb(0%, 0%, 0%)" stroke-opacity="1" stroke-miterlimit="10" d="M 151.878906 196.355469 C 151.878906 198.960938 147.96875 198.960938 147.96875 196.355469 C 147.96875 193.746094 151.878906 193.746094 151.878906 196.355469 "/>
<path fill-rule="nonzero" fill="rgb(100%, 80.392157%, 0%)" fill-opacity="1" stroke-width="0.708661" stroke-linecap="round" stroke-linejoin="round" stroke="rgb(0%, 0%, 0%)" stroke-opacity="1" stroke-miterlimit="10" d="M 111.390625 182.6875 C 111.390625 185.292969 107.484375 185.292969 107.484375 182.6875 C 107.484375 180.082031 111.390625 180.082031 111.390625 182.6875 "/>
<path fill-rule="nonzero" fill="rgb(100%, 80.392157%, 0%)" fill-opacity="1" stroke-width="0.708661" stroke-linecap="round" stroke-linejoin="round" stroke="rgb(0%, 0%, 0%)" stroke-opacity="1" stroke-miterlimit="10" d="M 121.515625 182.6875 C 121.515625 185.292969 117.605469 185.292969 117.605469 182.6875 C 117.605469 180.082031 121.515625 180.082031 121.515625 182.6875 "/>
<path fill-rule="nonzero" fill="rgb(100%, 80.392157%, 0%)" fill-opacity="1" stroke-width="0.708661" stroke-linecap="round" stroke-linejoin="round" stroke="rgb(0%, 0%, 0%)" stroke-opacity="1" stroke-miterlimit="10" d="M 202.488281 25.859375 C 202.488281 28.46875 198.578125 28.46875 198.578125 25.859375 C 198.578125 23.253906 202.488281 23.253906 202.488281 25.859375 "/>
<path fill-rule="nonzero" fill="rgb(100%, 80.392157%, 0%)" fill-opacity="1" stroke-width="0.708661" stroke-linecap="round" stroke-linejoin="round" stroke="rgb(0%, 0%, 0%)" stroke-opacity="1" stroke-miterlimit="10" d="M 70.90625 133.585938 C 70.90625 136.195312 66.996094 136.195312 66.996094 133.585938 C 66.996094 130.980469 70.90625 130.980469 70.90625 133.585938 "/>
<path fill-rule="nonzero" fill="rgb(100%, 80.392157%, 0%)" fill-opacity="1" stroke-width="0.708661" stroke-linecap="round" stroke-linejoin="round" stroke="rgb(0%, 0%, 0%)" stroke-opacity="1" stroke-miterlimit="10" d="M 182.246094 156.519531 C 182.246094 159.125 178.335938 159.125 178.335938 156.519531 C 178.335938 153.910156 182.246094 153.910156 182.246094 156.519531 "/>
<path fill-rule="nonzero" fill="rgb(100%, 80.392157%, 0%)" fill-opacity="1" stroke-width="0.708661" stroke-linecap="round" stroke-linejoin="round" stroke="rgb(0%, 0%, 0%)" stroke-opacity="1" stroke-miterlimit="10" d="M 192.367188 156.519531 C 192.367188 159.125 188.457031 159.125 188.457031 156.519531 C 188.457031 153.910156 192.367188 153.910156 192.367188 156.519531 "/>
<path fill-rule="nonzero" fill="rgb(100%, 80.392157%, 0%)" fill-opacity="1" stroke-width="0.708661" stroke-linecap="round" stroke-linejoin="round" stroke="rgb(0%, 0%, 0%)" stroke-opacity="1" stroke-miterlimit="10" d="M 182.246094 34.253906 C 182.246094 36.859375 178.335938 36.859375 178.335938 34.253906 C 178.335938 31.644531 182.246094 31.644531 182.246094 34.253906 "/>
<path fill-rule="nonzero" fill="rgb(100%, 80.392157%, 0%)" fill-opacity="1" stroke-width="0.708661" stroke-linecap="round" stroke-linejoin="round" stroke="rgb(0%, 0%, 0%)" stroke-opacity="1" stroke-miterlimit="10" d="M 60.785156 228.597656 C 60.785156 231.203125 56.875 231.203125 56.875 228.597656 C 56.875 225.992188 60.785156 225.992188 60.785156 228.597656 "/>
<path fill-rule="nonzero" fill="rgb(100%, 80.392157%, 0%)" fill-opacity="1" stroke-width="0.708661" stroke-linecap="round" stroke-linejoin="round" stroke="rgb(0%, 0%, 0%)" stroke-opacity="1" stroke-miterlimit="10" d="M 121.515625 123.675781 C 121.515625 126.28125 117.605469 126.28125 117.605469 123.675781 C 117.605469 121.070312 121.515625 121.070312 121.515625 123.675781 "/>
<path fill-rule="nonzero" fill="rgb(100%, 80.392157%, 0%)" fill-opacity="1" stroke-width="0.708661" stroke-linecap="round" stroke-linejoin="round" stroke="rgb(0%, 0%, 0%)" stroke-opacity="1" stroke-miterlimit="10" d="M 50.660156 154.078125 C 50.660156 156.683594 46.753906 156.683594 46.753906 154.078125 C 46.753906 151.472656 50.660156 151.472656 50.660156 154.078125 "/>
<path fill-rule="nonzero" fill="rgb(100%, 80.392157%, 0%)" fill-opacity="1" stroke-width="0.708661" stroke-linecap="round" stroke-linejoin="round" stroke="rgb(0%, 0%, 0%)" stroke-opacity="1" stroke-miterlimit="10" d="M 202.488281 68.117188 C 202.488281 70.722656 198.578125 70.722656 198.578125 68.117188 C 198.578125 65.507812 202.488281 65.507812 202.488281 68.117188 "/>
<path fill-rule="nonzero" fill="rgb(100%, 80.392157%, 0%)" fill-opacity="1" stroke-width="0.708661" stroke-linecap="round" stroke-linejoin="round" stroke="rgb(0%, 0%, 0%)" stroke-opacity="1" stroke-miterlimit="10" d="M 162 159.714844 C 162 162.320312 158.09375 162.320312 158.09375 159.714844 C 158.09375 157.105469 162 157.105469 162 159.714844 "/>
<path fill-rule="nonzero" fill="rgb(100%, 80.392157%, 0%)" fill-opacity="1" stroke-width="0.708661" stroke-linecap="round" stroke-linejoin="round" stroke="rgb(0%, 0%, 0%)" stroke-opacity="1" stroke-miterlimit="10" d="M 232.855469 55.007812 C 232.855469 57.613281 228.945312 57.613281 228.945312 55.007812 C 228.945312 52.402344 232.855469 52.402344 232.855469 55.007812 "/>
<path fill-rule="nonzero" fill="rgb(100%, 80.392157%, 0%)" fill-opacity="1" stroke-width="0.708661" stroke-linecap="round" stroke-linejoin="round" stroke="rgb(0%, 0%, 0%)" stroke-opacity="1" stroke-miterlimit="10" d="M 151.878906 161.941406 C 151.878906 164.546875 147.96875 164.546875 147.96875 161.941406 C 147.96875 159.335938 151.878906 159.335938 151.878906 161.941406 "/>
<path fill-rule="nonzero" fill="rgb(100%, 80.392157%, 0%)" fill-opacity="1" stroke-width="0.708661" stroke-linecap="round" stroke-linejoin="round" stroke="rgb(0%, 0%, 0%)" stroke-opacity="1" stroke-miterlimit="10" d="M 192.367188 85.375 C 192.367188 87.980469 188.457031 87.980469 188.457031 85.375 C 188.457031 82.769531 192.367188 82.769531 192.367188 85.375 "/>
<path fill-rule="nonzero" fill="rgb(100%, 80.392157%, 0%)" fill-opacity="1" stroke-width="0.708661" stroke-linecap="round" stroke-linejoin="round" stroke="rgb(0%, 0%, 0%)" stroke-opacity="1" stroke-miterlimit="10" d="M 182.246094 170.511719 C 182.246094 173.121094 178.335938 173.121094 178.335938 170.511719 C 178.335938 167.90625 182.246094 167.90625 182.246094 170.511719 "/>
<path fill-rule="nonzero" fill="rgb(100%, 80.392157%, 0%)" fill-opacity="1" stroke-width="0.708661" stroke-linecap="round" stroke-linejoin="round" stroke="rgb(0%, 0%, 0%)" stroke-opacity="1" stroke-miterlimit="10" d="M 141.757812 241.28125 C 141.757812 243.886719 137.847656 243.886719 137.847656 241.28125 C 137.847656 238.675781 141.757812 238.675781 141.757812 241.28125 "/>
<path fill-rule="nonzero" fill="rgb(100%, 80.392157%, 0%)" fill-opacity="1" stroke-width="0.708661" stroke-linecap="round" stroke-linejoin="round" stroke="rgb(0%, 0%, 0%)" stroke-opacity="1" stroke-miterlimit="10" d="M 172.125 102.121094 C 172.125 104.730469 168.214844 104.730469 168.214844 102.121094 C 168.214844 99.515625 172.125 99.515625 172.125 102.121094 "/>
<path fill-rule="nonzero" fill="rgb(100%, 80.392157%, 0%)" fill-opacity="1" stroke-width="0.708661" stroke-linecap="round" stroke-linejoin="round" stroke="rgb(0%, 0%, 0%)" stroke-opacity="1" stroke-miterlimit="10" d="M 131.636719 220.621094 C 131.636719 223.226562 127.726562 223.226562 127.726562 220.621094 C 127.726562 218.015625 131.636719 218.015625 131.636719 220.621094 "/>
<path fill-rule="nonzero" fill="rgb(100%, 80.392157%, 0%)" fill-opacity="1" stroke-width="0.708661" stroke-linecap="round" stroke-linejoin="round" stroke="rgb(0%, 0%, 0%)" stroke-opacity="1" stroke-miterlimit="10" d="M 273.339844 16.707031 C 273.339844 19.316406 269.433594 19.316406 269.433594 16.707031 C 269.433594 14.101562 273.339844 14.101562 273.339844 16.707031 "/>
<g clip-path="url(#clip-21)">
<path fill="none" stroke-width="1.066978" stroke-linecap="round" stroke-linejoin="round" stroke="rgb(20%, 20%, 20%)" stroke-opacity="1" stroke-miterlimit="10" d="M 37.574219 252.507812 L 282.523438 252.507812 L 282.523438 5.476562 L 37.574219 5.476562 Z M 37.574219 252.507812 "/>
</g>
<g fill="rgb(30.196078%, 30.196078%, 30.196078%)" fill-opacity="1">
<use xlink:href="#glyph-0-0" x="20.40625" y="250.835938"/>
<use xlink:href="#glyph-0-1" x="25.300391" y="250.835938"/>
<use xlink:href="#glyph-0-0" x="27.745312" y="250.835938"/>
</g>
<g fill="rgb(30.196078%, 30.196078%, 30.196078%)" fill-opacity="1">
<use xlink:href="#glyph-0-0" x="20.40625" y="203.332031"/>
<use xlink:href="#glyph-0-1" x="25.300391" y="203.332031"/>
<use xlink:href="#glyph-0-2" x="27.745312" y="203.332031"/>
</g>
<g fill="rgb(30.196078%, 30.196078%, 30.196078%)" fill-opacity="1">
<use xlink:href="#glyph-0-3" x="20.40625" y="155.828125"/>
<use xlink:href="#glyph-0-1" x="25.300391" y="155.828125"/>
<use xlink:href="#glyph-0-0" x="27.745312" y="155.828125"/>
</g>
<g fill="rgb(30.196078%, 30.196078%, 30.196078%)" fill-opacity="1">
<use xlink:href="#glyph-0-3" x="20.40625" y="108.324219"/>
<use xlink:href="#glyph-0-1" x="25.300391" y="108.324219"/>
<use xlink:href="#glyph-0-2" x="27.745312" y="108.324219"/>
</g>
<g fill="rgb(30.196078%, 30.196078%, 30.196078%)" fill-opacity="1">
<use xlink:href="#glyph-0-4" x="20.40625" y="60.816406"/>
<use xlink:href="#glyph-0-1" x="25.300391" y="60.816406"/>
<use xlink:href="#glyph-0-0" x="27.745312" y="60.816406"/>
</g>
<g fill="rgb(30.196078%, 30.196078%, 30.196078%)" fill-opacity="1">
<use xlink:href="#glyph-0-4" x="20.40625" y="13.3125"/>
<use xlink:href="#glyph-0-1" x="25.300391" y="13.3125"/>
<use xlink:href="#glyph-0-2" x="27.745312" y="13.3125"/>
</g>
<path fill="none" stroke-width="1.066978" stroke-linecap="butt" stroke-linejoin="round" stroke="rgb(20%, 20%, 20%)" stroke-opacity="1" stroke-miterlimit="10" d="M 34.832031 247.1875 L 37.574219 247.1875 "/>
<path fill="none" stroke-width="1.066978" stroke-linecap="butt" stroke-linejoin="round" stroke="rgb(20%, 20%, 20%)" stroke-opacity="1" stroke-miterlimit="10" d="M 34.832031 199.683594 L 37.574219 199.683594 "/>
<path fill="none" stroke-width="1.066978" stroke-linecap="butt" stroke-linejoin="round" stroke="rgb(20%, 20%, 20%)" stroke-opacity="1" stroke-miterlimit="10" d="M 34.832031 152.179688 L 37.574219 152.179688 "/>
<path fill="none" stroke-width="1.066978" stroke-linecap="butt" stroke-linejoin="round" stroke="rgb(20%, 20%, 20%)" stroke-opacity="1" stroke-miterlimit="10" d="M 34.832031 104.671875 L 37.574219 104.671875 "/>
<path fill="none" stroke-width="1.066978" stroke-linecap="butt" stroke-linejoin="round" stroke="rgb(20%, 20%, 20%)" stroke-opacity="1" stroke-miterlimit="10" d="M 34.832031 57.167969 L 37.574219 57.167969 "/>
<path fill="none" stroke-width="1.066978" stroke-linecap="butt" stroke-linejoin="round" stroke="rgb(20%, 20%, 20%)" stroke-opacity="1" stroke-miterlimit="10" d="M 34.832031 9.664062 L 37.574219 9.664062 "/>
<path fill="none" stroke-width="1.066978" stroke-linecap="butt" stroke-linejoin="round" stroke="rgb(20%, 20%, 20%)" stroke-opacity="1" stroke-miterlimit="10" d="M 58.828125 255.25 L 58.828125 252.507812 "/>
<path fill="none" stroke-width="1.066978" stroke-linecap="butt" stroke-linejoin="round" stroke="rgb(20%, 20%, 20%)" stroke-opacity="1" stroke-miterlimit="10" d="M 109.4375 255.25 L 109.4375 252.507812 "/>
<path fill="none" stroke-width="1.066978" stroke-linecap="butt" stroke-linejoin="round" stroke="rgb(20%, 20%, 20%)" stroke-opacity="1" stroke-miterlimit="10" d="M 160.046875 255.25 L 160.046875 252.507812 "/>
<path fill="none" stroke-width="1.066978" stroke-linecap="butt" stroke-linejoin="round" stroke="rgb(20%, 20%, 20%)" stroke-opacity="1" stroke-miterlimit="10" d="M 210.65625 255.25 L 210.65625 252.507812 "/>
<path fill="none" stroke-width="1.066978" stroke-linecap="butt" stroke-linejoin="round" stroke="rgb(20%, 20%, 20%)" stroke-opacity="1" stroke-miterlimit="10" d="M 261.265625 255.25 L 261.265625 252.507812 "/>
<g fill="rgb(30.196078%, 30.196078%, 30.196078%)" fill-opacity="1">
<use xlink:href="#glyph-0-2" x="56.382812" y="264.738281"/>
</g>
<g fill="rgb(30.196078%, 30.196078%, 30.196078%)" fill-opacity="1">
<use xlink:href="#glyph-0-3" x="104.542969" y="264.738281"/>
<use xlink:href="#glyph-0-0" x="109.437109" y="264.738281"/>
</g>
<g fill="rgb(30.196078%, 30.196078%, 30.196078%)" fill-opacity="1">
<use xlink:href="#glyph-0-3" x="155.152344" y="264.738281"/>
<use xlink:href="#glyph-0-2" x="160.046484" y="264.738281"/>
</g>
<g fill="rgb(30.196078%, 30.196078%, 30.196078%)" fill-opacity="1">
<use xlink:href="#glyph-0-4" x="205.761719" y="264.738281"/>
<use xlink:href="#glyph-0-0" x="210.655859" y="264.738281"/>
</g>
<g fill="rgb(30.196078%, 30.196078%, 30.196078%)" fill-opacity="1">
<use xlink:href="#glyph-0-4" x="256.371094" y="264.738281"/>
<use xlink:href="#glyph-0-2" x="261.265234" y="264.738281"/>
</g>
<g fill="rgb(0%, 0%, 0%)" fill-opacity="1">
<use xlink:href="#glyph-1-0" x="73.839844" y="279.207031"/>
<use xlink:href="#glyph-1-1" x="81.783691" y="279.207031"/>
<use xlink:href="#glyph-1-2" x="87.901367" y="279.207031"/>
<use xlink:href="#glyph-1-3" x="97.064453" y="279.207031"/>
<use xlink:href="#glyph-1-4" x="103.182129" y="279.207031"/>
<use xlink:href="#glyph-1-5" x="109.299805" y="279.207031"/>
<use xlink:href="#glyph-1-6" x="112.962891" y="279.207031"/>
<use xlink:href="#glyph-1-7" x="116.019043" y="279.207031"/>
<use xlink:href="#glyph-1-8" x="122.136719" y="279.207031"/>
<use xlink:href="#glyph-1-6" x="125.192871" y="279.207031"/>
<use xlink:href="#glyph-1-9" x="128.249023" y="279.207031"/>
<use xlink:href="#glyph-1-10" x="134.366699" y="279.207031"/>
<use xlink:href="#glyph-1-5" x="140.484375" y="279.207031"/>
<use xlink:href="#glyph-1-7" x="144.147461" y="279.207031"/>
<use xlink:href="#glyph-1-4" x="150.265137" y="279.207031"/>
<use xlink:href="#glyph-1-11" x="156.382812" y="279.207031"/>
<use xlink:href="#glyph-1-7" x="161.882812" y="279.207031"/>
<use xlink:href="#glyph-1-12" x="168.000488" y="279.207031"/>
<use xlink:href="#glyph-1-7" x="170.444336" y="279.207031"/>
<use xlink:href="#glyph-1-10" x="176.562012" y="279.207031"/>
<use xlink:href="#glyph-1-13" x="182.679688" y="279.207031"/>
<use xlink:href="#glyph-1-11" x="185.123535" y="279.207031"/>
<use xlink:href="#glyph-1-9" x="190.623535" y="279.207031"/>
<use xlink:href="#glyph-1-12" x="196.741211" y="279.207031"/>
<use xlink:href="#glyph-1-6" x="199.185059" y="279.207031"/>
<use xlink:href="#glyph-1-14" x="202.241211" y="279.207031"/>
<use xlink:href="#glyph-1-5" x="208.358887" y="279.207031"/>
<use xlink:href="#glyph-1-9" x="212.021973" y="279.207031"/>
<use xlink:href="#glyph-1-11" x="218.139648" y="279.207031"/>
<use xlink:href="#glyph-1-15" x="223.639648" y="279.207031"/>
<use xlink:href="#glyph-1-13" x="226.695801" y="279.207031"/>
<use xlink:href="#glyph-1-11" x="229.139648" y="279.207031"/>
<use xlink:href="#glyph-1-4" x="234.639648" y="279.207031"/>
<use xlink:href="#glyph-1-16" x="240.757324" y="279.207031"/>
</g>
<g fill="rgb(0%, 0%, 0%)" fill-opacity="1">
<use xlink:href="#glyph-2-0" x="14.351562" y="187.394531"/>
<use xlink:href="#glyph-2-1" x="14.351562" y="180.057617"/>
<use xlink:href="#glyph-2-2" x="14.351562" y="173.939941"/>
<use xlink:href="#glyph-2-3" x="14.351562" y="167.822266"/>
<use xlink:href="#glyph-2-3" x="14.351562" y="161.70459"/>
<use xlink:href="#glyph-2-4" x="14.351563" y="155.586914"/>
<use xlink:href="#glyph-2-3" x="14.351563" y="149.469238"/>
<use xlink:href="#glyph-2-5" x="14.351563" y="143.351562"/>
<use xlink:href="#glyph-2-6" x="14.351563" y="140.29541"/>
<use xlink:href="#glyph-2-7" x="14.351563" y="134.177734"/>
<use xlink:href="#glyph-2-8" x="14.351563" y="131.733887"/>
<use xlink:href="#glyph-2-9" x="14.351563" y="126.233887"/>
<use xlink:href="#glyph-2-10" x="14.351563" y="120.116211"/>
<use xlink:href="#glyph-2-11" x="14.351563" y="116.453125"/>
<use xlink:href="#glyph-2-7" x="14.351563" y="110.953125"/>
<use xlink:href="#glyph-2-12" x="14.351563" y="108.509277"/>
<use xlink:href="#glyph-2-13" x="14.351563" y="105.453125"/>
<use xlink:href="#glyph-2-5" x="14.351563" y="99.953125"/>
<use xlink:href="#glyph-2-7" x="14.351563" y="96.896973"/>
<use xlink:href="#glyph-2-3" x="14.351563" y="94.453125"/>
<use xlink:href="#glyph-2-6" x="14.351563" y="88.335449"/>
<use xlink:href="#glyph-2-9" x="14.351563" y="82.217773"/>
<use xlink:href="#glyph-2-14" x="14.351563" y="76.100098"/>
</g>
</svg>
